# xmcd
#
# Track frame offsets:
# 150
# 14625
# 28176
# 41500
# 54746
# 69343
# 85344
# 100824
# 115078
# 128399
# 145617
# 159967
# 174066
# 187984
# 203926
# 217135
# 228679
# 244165
# 257248
# 271194
# 289163
#
# Disc length: 4089 seconds
#
#
# Revision: 0
# Processed by: cddbd v1.5.1PL0 Copyright (c) Steve Scherf et al.
# Submitted via: FreeRIP 2.53 
#
DISCID=290ff715
DTITLE=Truck Stop - Der wilde, wilde Westen
DYEAR=2005
DGENRE=Country
TTITLE0=Von Arizona bis Old Texas Town
TTITLE1=Männer mit Hut
TTITLE2=Morgens in Montana
TTITLE3=Howdy, Howdy
TTITLE4=Louisiana Ladies
TTITLE5=Hey, kleiner Cowboy
TTITLE6=Square Dance Darling
TTITLE7=Cowboys küssen besser
TTITLE8=Arizona, Arizona
TTITLE9=Old Texas Town, die Westernstadt
TTITLE10=Country Boy
TTITLE11=Das gibt's doch nur in Dallas
TTITLE12=Komm her Du bist mein Cowboy
TTITLE13=Wir sind nur für Stiefel gut
TTITLE14=Tief im Herzen (Immer Cowboy)
TTITLE15=Lass die Mädels wissen
TTITLE16=Wilder Reiter
TTITLE17=Die Cowboys der Nation
TTITLE18=Wilde Pferde ...
TTITLE19=Kleine Cowboys werden groß
TTITLE20=Wenn es Nacht wird in Old Tuxon
EXTD=
EXTT0=
EXTT1=
EXTT2=
EXTT3=
EXTT4=
EXTT5=
EXTT6=
EXTT7=
EXTT8=
EXTT9=
EXTT10=
EXTT11=
EXTT12=
EXTT13=
EXTT14=
EXTT15=
EXTT16=
EXTT17=
EXTT18=
EXTT19=
EXTT20=
PLAYORDER=
